<svg width="281" height="44" viewBox="0 0 281 44" fill="none" xmlns="http://www.w3.org/2000/svg">
<path d="M3.44195 25.7971V11.5376H0.819506V9.98049H14.0546V11.5376H12.2517V27.6C12.2517 30.0859 11.9102 31.9844 11.2273 33.2956C10.5717 34.5795 9.6839 35.4537 8.5639 35.918C7.47121 36.3824 6.24195 36.6146 4.87609 36.6146C3.53756 36.6146 2.49951 36.5327 1.76195 36.3688C1.0517 36.2322 0.464384 36.1093 -5.76214e-06 36L0.942433 29.0341H6.14634V26.8624C6.14634 26.3161 6.02341 26.002 5.77756 25.92C5.5317 25.838 5.24487 25.7971 4.91707 25.7971H3.44195ZM26.2484 36H15.6357V34.4429H17.4386V11.5376H15.6357V9.98049H26.2484V22.1093H32.3947V9.98049H43.0074V11.5376H41.2045V34.4429H43.0074V36H32.3947V24.3629H26.2484V36ZM68.8032 20.6751V25.2644C68.8032 27.5317 68.5846 29.3893 68.1476 30.8371C67.7105 32.2576 67.0958 33.3776 66.3037 34.1971C65.5115 34.9893 64.5827 35.5629 63.5173 35.918C62.4793 36.2459 61.3456 36.4371 60.1163 36.4917C58.8871 36.5737 57.6168 36.6146 56.3056 36.6146C55.1037 36.6146 53.9427 36.5737 52.8227 36.4917C51.73 36.4371 50.7056 36.2459 49.7495 35.918C48.8207 35.5629 48.0012 34.9893 47.291 34.1971C46.5807 33.3776 46.0207 32.2576 45.611 30.8371C45.2285 29.3893 45.0373 27.5317 45.0373 25.2644V20.6751C45.0373 18.4078 45.2558 16.5639 45.6929 15.1434C46.13 13.7229 46.7446 12.6166 47.5368 11.8244C48.329 11.0049 49.2441 10.4312 50.2822 10.1034C51.3476 9.74829 52.4949 9.54341 53.7241 9.48878C54.9534 9.40683 56.2237 9.36585 57.5349 9.36585C58.7368 9.36585 59.8841 9.40683 60.9768 9.48878C62.0968 9.54341 63.1212 9.74829 64.05 10.1034C65.0061 10.4312 65.8393 11.0049 66.5495 11.8244C67.2597 12.6166 67.8061 13.7229 68.1885 15.1434C68.5983 16.5639 68.8032 18.4078 68.8032 20.6751ZM59.9934 33.6644V12.2751H53.8471V33.6644H59.9934ZM70.8567 11.5376V9.98049H86.6324L92.4099 33.5415H94.0899L90.7709 9.98049H98.5972V11.5376H96.7943V36H82.8216L77.5358 12.439H75.8558L78.6831 36H70.8567V34.4429H72.6597V11.5376H70.8567ZM122.919 9.98049V18.5034H118.125L117.1 12.8488H114.765L115.666 19.7327V34.4429H119.108V36H103.414V34.4429H106.856V19.7327L107.758 12.8488H105.422L104.398 18.7493H99.6037V9.98049H122.919ZM134.97 36H124.357V34.4429H126.16V11.5376H124.357V9.98049H138.781C140.256 9.98049 141.662 10.0351 143.001 10.1444C144.34 10.2263 145.528 10.4995 146.566 10.9639C147.604 11.4283 148.423 12.1932 149.024 13.2585C149.625 14.2966 149.926 15.7717 149.926 17.6839C149.926 19.4595 149.666 20.8663 149.147 21.9044C148.628 22.9424 147.918 23.7073 147.017 24.199C146.115 24.6907 145.077 25.0322 143.902 25.2234V26.1659H145.746C146.702 26.1659 147.344 26.3434 147.672 26.6985C148.027 27.0263 148.26 27.6683 148.369 28.6244L149.065 34.4429H151.237V36H141.116V27.3951H134.97V36ZM141.116 24.4449V12.8488H134.97V24.4449H141.116ZM158.85 36H149.794V34.4429H151.474L155.039 11.5376H152.498V9.98049H171.019L174.789 34.4429H176.51V36H164.627L164.054 29.8537H158.85V36ZM158.85 12.439V27.6H163.849L162.496 12.439H158.85ZM194.317 22.8059V23.7483H196.16C197.117 23.7483 197.745 23.9122 198.045 24.24C198.346 24.5405 198.592 25.1551 198.783 26.0839L200.422 34.4429H202.758V36H192.637L190.178 24.3629H187.31V36H176.697V34.4429H178.5V11.5376H176.697V9.98049H187.31V22.1093H190.301L192.637 9.98049H202.348V11.5376H200.217L197.595 20.2244C197.321 21.1532 196.898 21.7951 196.324 22.1502C195.778 22.5054 195.109 22.7239 194.317 22.8059ZM226.478 9.98049V18.5034H221.684L220.66 12.8488H218.324L219.226 19.7327V34.4429H222.668V36H206.974V34.4429H210.416V19.7327L211.317 12.8488H208.982L207.957 18.7493H203.163V9.98049H226.478ZM251.273 20.6751V25.2644C251.273 27.5317 251.054 29.3893 250.617 30.8371C250.18 32.2576 249.565 33.3776 248.773 34.1971C247.981 34.9893 247.052 35.5629 245.987 35.918C244.949 36.2459 243.815 36.4371 242.586 36.4917C241.357 36.5737 240.086 36.6146 238.775 36.6146C237.573 36.6146 236.412 36.5737 235.292 36.4917C234.199 36.4371 233.175 36.2459 232.219 35.918C231.29 35.5629 230.471 34.9893 229.76 34.1971C229.05 33.3776 228.49 32.2576 228.08 30.8371C227.698 29.3893 227.507 27.5317 227.507 25.2644V20.6751C227.507 18.4078 227.725 16.5639 228.162 15.1434C228.599 13.7229 229.214 12.6166 230.006 11.8244C230.799 11.0049 231.714 10.4312 232.752 10.1034C233.817 9.74829 234.964 9.54341 236.194 9.48878C237.423 9.40683 238.693 9.36585 240.004 9.36585C241.206 9.36585 242.354 9.40683 243.446 9.48878C244.566 9.54341 245.591 9.74829 246.519 10.1034C247.476 10.4312 248.309 11.0049 249.019 11.8244C249.729 12.6166 250.276 13.7229 250.658 15.1434C251.068 16.5639 251.273 18.4078 251.273 20.6751ZM242.463 33.6644V12.2751H236.317V33.6644H242.463ZM263.939 36H253.326V34.4429H255.129V11.5376H253.326V9.98049H267.75C269.225 9.98049 270.632 10.0351 271.97 10.1444C273.309 10.2263 274.497 10.4995 275.535 10.9639C276.573 11.4283 277.393 12.1932 277.994 13.2585C278.595 14.2966 278.895 15.7717 278.895 17.6839C278.895 19.4595 278.636 20.8663 278.116 21.9044C277.597 22.9424 276.887 23.7073 275.986 24.199C275.084 24.6907 274.046 25.0322 272.872 25.2234V26.1659H274.716C275.672 26.1659 276.314 26.3434 276.641 26.6985C276.996 27.0263 277.229 27.6683 277.338 28.6244L278.035 34.4429H280.206V36H270.085V27.3951H263.939V36ZM270.085 24.4449V12.8488H263.939V24.4449H270.085Z" fill="#FF7420"/>
</svg>
